<svg width="54" height="49" viewBox="0 0 54 49" fill="none" xmlns="http://www.w3.org/2000/svg">
<path fill-rule="evenodd" clip-rule="evenodd" d="M0 0H54V49H0V0Z" fill="white"/>
<path fill-rule="evenodd" clip-rule="evenodd" d="M2.37671 45.1724H2.22234C2.22234 45.1025 2.18368 44.9972 2.18368 44.9619C2.18368 44.9271 2.18368 44.8572 2.0677 44.8572H1.83574V45.1724H1.71976V44.4362H2.0677C2.22234 44.4362 2.33804 44.4715 2.33804 44.6113C2.33804 44.7166 2.29938 44.7519 2.261 44.7865C2.29966 44.8218 2.33804 44.8569 2.33804 44.9271V45.0671C2.33804 45.1025 2.33804 45.1025 2.37671 45.1025V45.1724ZM2.22234 44.6467C2.22234 44.5414 2.14502 44.5414 2.10636 44.5414H1.83574V44.7519H2.0677C2.14502 44.7519 2.22234 44.7166 2.22234 44.6467V44.6467ZM2.87929 44.7867C2.87929 44.3663 2.49297 44.0152 1.99038 44.0152C1.52674 44.0152 1.14014 44.3663 1.14014 44.7867C1.14014 45.2425 1.52674 45.5936 1.99038 45.5936C2.49269 45.5933 2.87929 45.2425 2.87929 44.7867ZM2.76331 44.7867C2.76331 45.1726 2.41565 45.453 1.99038 45.453C1.56512 45.453 1.25612 45.1724 1.25612 44.7867C1.25612 44.4362 1.5654 44.1205 1.99038 44.1205C2.41537 44.1205 2.76331 44.4362 2.76331 44.7867ZM50.3754 30.6195C50.3754 31.6717 49.6411 32.162 48.327 32.162H45.8154V31.1099H48.327C48.5589 31.1099 48.7522 31.0751 48.8298 31.0051C48.9069 30.9347 48.9842 30.8295 48.9842 30.6894C48.9842 30.5488 48.9071 30.4088 48.8298 30.3389C48.7522 30.2685 48.5979 30.2336 48.3659 30.2336C47.1683 30.1983 45.6608 30.2685 45.6608 28.7257C45.6608 28.0241 46.1631 27.2525 47.5157 27.2525H50.1048V28.3047H47.7087C47.4773 28.3047 47.3224 28.3047 47.2064 28.3746C47.0904 28.4799 47.0134 28.5851 47.0134 28.7605C47.0134 28.9359 47.1293 29.0411 47.2837 29.1116C47.4386 29.1464 47.5933 29.1815 47.7866 29.1815H48.4819C49.2162 29.1815 49.6801 29.3215 49.9894 29.5673C50.2208 29.8127 50.3754 30.1286 50.3754 30.6195V30.6195ZM44.9263 29.5673C44.617 29.3215 44.1531 29.1815 43.4188 29.1815H42.7235C42.5304 29.1815 42.3755 29.1461 42.2212 29.1116C42.0662 29.0411 41.9508 28.9359 41.9508 28.7605C41.9508 28.5851 41.9892 28.4799 42.1438 28.3746C42.2598 28.3047 42.4142 28.3047 42.6461 28.3047H45.0422V27.2525H42.4531C41.0616 27.2525 40.5977 28.0241 40.5977 28.7257C40.5977 30.2682 42.1052 30.1983 43.3034 30.2336C43.5348 30.2336 43.6897 30.2685 43.7667 30.3389C43.8438 30.4088 43.9217 30.5488 43.9217 30.6894C43.9217 30.8295 43.8441 30.9347 43.7667 31.0051C43.6507 31.0751 43.4964 31.1099 43.2644 31.1099H40.7524V32.162H43.2644C44.578 32.162 45.3126 31.6714 45.3126 30.6195C45.3126 30.1286 45.1582 29.8127 44.9263 29.5673V29.5673ZM39.9794 31.1455H36.9269V30.1635H39.9024V29.182H36.9269V28.2699H39.9794V27.253H35.6514V32.1623H39.9794V31.1455ZM34.2599 27.4986C33.8347 27.2881 33.3324 27.2528 32.6754 27.2528H29.7V32.162H31.0136V30.3737H32.4051C32.8685 30.3737 33.1394 30.409 33.3327 30.5842C33.5646 30.8295 33.5646 31.2505 33.5646 31.5662V32.162H34.8396V31.2151C34.8396 30.7593 34.8012 30.5488 34.6465 30.3035C34.5306 30.163 34.2992 29.9878 33.9899 29.8826C34.3373 29.7778 34.9175 29.3569 34.9175 28.5851C34.9172 28.0243 34.6852 27.7086 34.2599 27.4986V27.4986ZM26.9173 27.2528H22.782L21.1202 28.866L19.5357 27.2528H14.3185V32.162H19.4587L21.1205 30.5488L22.705 32.162H25.2171V30.5143H26.8403C27.9608 30.5143 29.082 30.2336 29.082 28.866C29.0817 27.5334 27.9222 27.2528 26.9173 27.2528ZM33.2164 29.287C33.0234 29.3569 32.8301 29.3569 32.5981 29.3569L31.0136 29.3922V28.2696H32.5981C32.8301 28.2696 33.062 28.2696 33.2164 28.3749C33.3713 28.4453 33.4867 28.5853 33.4867 28.7958C33.4867 29.0063 33.3713 29.1817 33.2164 29.287V29.287ZM26.9173 29.5323H25.2168V28.2696H26.9173C27.3812 28.2696 27.6902 28.4453 27.6902 28.866C27.6902 29.287 27.3809 29.5323 26.9173 29.5323ZM21.9318 29.7074L23.9413 27.779V31.7416L21.9318 29.7074ZM18.8014 31.1455H15.5938V30.1635H18.4535V29.182H15.5938V28.2699H18.8401L20.27 29.7077L18.8014 31.1455V31.1455ZM46.7811 23.7109H44.9263L42.4915 20.0287V23.7109H39.864L39.3611 22.6237H36.656L36.1537 23.7109H34.6463C34.028 23.7109 33.2164 23.5706 32.753 23.1496C32.3278 22.7289 32.0958 22.1679 32.0958 21.2911C32.0958 20.5547 32.2118 19.8884 32.7911 19.3624C33.1775 18.9766 33.8733 18.8014 34.762 18.8014H35.9985V19.8536H34.762C34.2986 19.8536 34.0277 19.9237 33.7574 20.1342C33.5254 20.3447 33.4094 20.7303 33.4094 21.2563C33.4094 21.7822 33.5254 22.1681 33.7574 22.4137C33.9504 22.5888 34.2986 22.659 34.646 22.659H35.2259L37.0807 18.8017H39.0132L41.1773 23.4305V18.8014H43.1871L45.4672 22.203V18.8014H46.7808V23.7109H46.7811V23.7109ZM31.4389 18.8014H30.1253V23.7109H31.4389V18.8014V18.8014ZM28.6948 19.0119C28.2696 18.8014 27.8062 18.8014 27.1493 18.8014H24.1733V23.7109H25.4485V21.9223H26.8397C27.3036 21.9223 27.6129 21.9574 27.8059 22.1328C28.0379 22.3784 27.9989 22.7993 27.9989 23.0797V23.7109H29.3126V22.7289C29.3126 22.3082 29.2742 22.0977 29.0812 21.8522C28.9652 21.7118 28.7332 21.5364 28.4629 21.4314C28.8102 21.2911 29.3904 20.9055 29.3904 20.134C29.3907 19.5729 29.1198 19.2572 28.6948 19.0119ZM23.2457 22.6941H20.2313V21.7121H23.207V20.6953H20.2313V19.8185H23.2457V18.8017H18.9174V23.7112H23.2457V22.6941ZM17.9512 18.8014H15.8257L14.2412 22.1328L12.5407 18.8014H10.4539V23.4303L8.25111 18.8014H6.31893L4.00016 23.7109H5.39137L5.89367 22.6237H8.59877L9.10107 23.7109H11.7291V19.8536L13.6226 23.7109H14.7432L16.637 19.8536V23.7109H17.9509V18.8014H17.9512ZM38.8978 21.5718L38.0086 19.6431L37.12 21.5718H38.8978ZM27.6902 20.8005C27.4972 20.9057 27.3039 20.9057 27.0333 20.9057H25.4485V19.8188H27.033C27.265 19.8188 27.535 19.8188 27.6899 19.8889C27.8443 19.9942 27.9219 20.1345 27.9219 20.3447C27.9219 20.5549 27.8446 20.7301 27.6902 20.8005V20.8005ZM6.35731 21.5718L7.24622 19.6431L8.13513 21.5718H6.35731V21.5718ZM50.0664 3.40662H3.96122V21.0809L5.54573 17.8197H8.90777L9.37169 18.6263V17.8197H13.3136L14.2025 19.5729L15.0528 17.8197H27.6129C28.1922 17.8197 28.6945 17.9249 29.0814 18.2053V17.8197H32.5208V18.2053C33.1001 17.9247 33.8344 17.8197 34.6849 17.8197H39.6701L40.1341 18.6263V17.8197H43.8054L44.3466 18.6263V17.8197H47.9404V24.6929H44.308L43.6126 23.641V24.6929H39.0908L38.5885 23.5709H37.4673L36.965 24.6929H34.6079C33.6803 24.6929 32.9844 24.4824 32.5211 24.2722V24.6929H26.9173V23.1148C26.9173 22.9043 26.8786 22.8692 26.724 22.8692H26.531V24.6927H15.7097V23.8159L15.3234 24.6927H13.0433L12.657 23.851V24.6927H8.28977L7.82612 23.5706H6.70526L6.20295 24.6927H3.96122V45.4179H50.0664V32.8283C49.5641 33.0388 48.8682 33.144 48.1726 33.144H44.8103V32.7231C44.424 33.004 43.7281 33.144 43.0714 33.144H32.4821V31.5662C32.4821 31.3557 32.4438 31.3557 32.2502 31.3557H32.0572V33.144H28.5788V31.2855C27.9995 31.5308 27.3423 31.5308 26.7627 31.5308H26.3761V33.144H22.1251L21.1205 32.0919L19.9999 33.144H13.159V26.271H20.1153L21.1202 27.3227L22.2024 26.271H26.8786C27.4193 26.271 28.3085 26.341 28.6948 26.6915V26.271H32.8685C33.2937 26.271 34.1056 26.341 34.6463 26.6915V26.271H40.9457V26.6918C41.2936 26.4111 41.9508 26.2713 42.5302 26.2713H46.0468V26.6918C46.4337 26.4464 46.9744 26.2713 47.6703 26.2713H50.0664V3.40662V3.40662Z" fill="#0077A6"/>
</svg>
